<?xml version='1.0' encoding='utf-8'?>
<svg xmlns="http://www.w3.org/2000/svg" enable-background="new 0 0 59.15 20.9" version="1.1" viewBox="0 0 59.15 20.9">
<path d="m7.1 11.4c-0.434 0.267-0.767 0.466-1 0.6-0.333 0.267-0.467 0.483-0.4 0.65 0.4 0.699 1.917 1.6 4.55 2.699 0.033 0 0.067 0.017 0.1 0.051-3.2-1-5.317-1.7-6.35-2.101l-3.75-1.399 3.55-0.1c1.034-0.066 1.967-0.184 2.8-0.35 0.167-0.033 0.333-0.066 0.5-0.101v0.051zm24.65-8.2c-1.267 0.233-2.733 0.816-4.4 1.75-0.6 0.267-1.067 0.466-1.4 0.6-0.8 0.267-1.934 0.617-3.4 1.05h-0.15l0.85-0.3c0.067-0.033 0.15-0.066 0.25-0.1 1.5-0.567 3.133-1.45 4.9-2.65 1.034-1.233 1.55-1.966 1.55-2.2l0.9-1.35 2.65 1.55c1.7 0.9 3.134 1.483 4.3 1.75 0.2 0.034 0.384 0.067 0.55 0.1l4.85 0.65 1.1 0.15c-3.2-0.3-5.217-0.483-6.05-0.55-0.167-0.033-0.316-0.05-0.45-0.05-0.633-0.133-1.116-0.233-1.45-0.3-1.333-0.3-2.683-0.367-4.05-0.2-0.133 0-0.317 0.033-0.55 0.1z" clip-rule="evenodd" fill="#B8B5A7" fill-rule="evenodd"/>
<path d="m55.4 6.55l-0.4 0.3c-0.934 0.667-1.816 1.25-2.65 1.75l-0.65 0.4c-0.033 0-0.066 0.017-0.101 0.05-0.033 0-0.066 0.017-0.1 0.05l-1.699 0.9c-0.767 0.367-1.684 0.8-2.75 1.3-3.333 1.566-5.033 2.367-5.1 2.4-0.566 0.3-1.95 0.9-4.15 1.8-0.066 0-0.133 0.017-0.2 0.05-1.767 0.733-3.233 1.417-4.399 2.05l-4.951 2.8c-4.433-0.766-8.75-1.8-12.95-3.1-5.8-1.767-9.55-3-11.25-3.7l-0.55-0.25-3.25-1.45 3.75 1.4c1.033 0.4 3.15 1.101 6.35 2.101 0.333 0.1 0.7 0.216 1.1 0.35 1.5 0.366 4.066 1 7.7 1.9 3.2 0.8 5.283 1.233 6.25 1.3 1.767 0.133 3.017-0.05 3.75-0.55 0.399-0.301 0.783-0.75 1.149-1.351 0.767-0.6 0.667-1.184-0.3-1.75-0.4-0.233-0.833-0.416-1.3-0.55-0.7-0.167-1.35-0.333-1.95-0.5-0.733-0.167-1.45-0.384-2.15-0.65l-0.8-0.35 0.65 0.2c0.433 0.133 0.966 0.25 1.6 0.35 1.167 0.267 2.2 0.434 3.101 0.5 0.733 0.066 1.983 0.267 3.75 0.601 1.533 0.333 2.566 0.483 3.1 0.449 0.267 0 0.55-0.05 0.85-0.149 0.301-0.101 0.617-0.217 0.95-0.351 0.033-0.033 0.066-0.05 0.101-0.05 0.399-0.2 0.767-0.366 1.1-0.5 0.3-0.166 0.583-0.283 0.85-0.35l0.301-0.101 0.1-0.05h0.05c1.434-0.399 2.434-0.934 3-1.6 0.334-0.4 0.05-0.767-0.85-1.101l-1.05-0.5 1.199 0.25c0.867 0.167 1.534 0.25 2 0.25 0.101 0 0.25-0.017 0.45-0.05 0.367-0.133 0.967-0.35 1.8-0.65 1.367-0.566 3.351-1.45 5.95-2.65 1-0.4 1.617-0.8 1.851-1.2 0.267-0.433 0.083-0.8-0.551-1.1h0.051c1.399 0.066 2.366 0 2.899-0.2-0.033 0.033-0.066 0.067-0.1 0.1-0.066 0.033-0.117 0.066-0.15 0.1l-0.701 0.552c-0.267 0.167-0.5 0.35-0.7 0.55zm-24.55-6.55l-0.9 1.35c0 0.233-0.517 0.967-1.55 2.2-1.767 1.2-3.4 2.083-4.9 2.65-0.1 0.033-0.183 0.066-0.25 0.1l1.3-0.7c0.534-0.233 1.217-0.6 2.05-1.1 0.733-0.467 1.217-0.8 1.45-1l1.25-1.6c0.2-0.333 0.367-0.633 0.5-0.9 0.266-0.367 0.617-0.7 1.05-1zm7.4 3.65c0.2 0.033 0.417 0.067 0.65 0.1l-0.851-0.1h-0.25c-1.865-0.233-3.415-0.35-4.649-0.35-0.634 0.034-1.267 0.15-1.9 0.35-0.2 0.067-0.8 0.317-1.8 0.75-0.367 0.067-0.833 0.25-1.4 0.55-0.533 0.267-1.3 0.517-2.3 0.75l-0.8 0.2 0.5-0.15c0.1-0.033 0.267-0.1 0.5-0.2 0.333-0.133 0.8-0.333 1.4-0.6l0.6-0.3c0.566-0.3 1.333-0.617 2.3-0.95 0.6-0.233 1.1-0.4 1.5-0.5 0.233-0.067 0.417-0.1 0.55-0.1 1.367-0.167 2.717-0.1 4.05 0.2 0.334 0.067 0.817 0.167 1.45 0.3 0.134 0 0.283 0.017 0.45 0.05z" clip-rule="evenodd" fill="#F5EFDD" fill-rule="evenodd"/>
<path d="m0.25 11.9l4.3-0.2c0.733-0.066 1.417-0.15 2.05-0.25-0.833 0.166-1.767 0.283-2.8 0.35l-3.55 0.1zm10.1 3.5c-0.033-0.034-0.067-0.051-0.1-0.051-2.633-1.1-4.15-2-4.55-2.699-0.067-0.167 0.067-0.383 0.4-0.65 0.233-0.134 0.566-0.333 1-0.6 0.6-0.134 1.133-0.267 1.6-0.4 0.533-0.167 1.933-0.667 4.2-1.5 1.833-0.7 3.217-1.133 4.15-1.3 1.333-0.233 3.167-0.767 5.5-1.6 1.467-0.434 2.6-0.783 3.4-1.05-0.233 0.1-0.4 0.167-0.5 0.2l-0.5 0.15 0.8-0.2c1-0.233 1.767-0.483 2.3-0.75 0.567-0.3 1.033-0.483 1.4-0.55 1-0.433 1.6-0.683 1.8-0.75 0.634-0.2 1.267-0.316 1.9-0.35 1.233 0 2.783 0.117 4.649 0.35h0.25l0.851 0.1c-0.233-0.033-0.45-0.067-0.65-0.1 0.833 0.067 2.85 0.25 6.05 0.55l-1.1-0.15 1.3 0.15c5.566 0.767 8.767 1.183 9.6 1.25 0.634 0.3 0.817 0.667 0.551 1.1-0.233 0.4-0.851 0.8-1.851 1.2-2.6 1.2-4.583 2.083-5.95 2.65 0.134-0.1 0.267-0.183 0.4-0.25 0.5-0.3 0.684-0.517 0.55-0.65-0.066-0.067-0.35-0.183-0.85-0.35-0.8-0.433-1.601-0.816-2.4-1.15-1.566-0.6-3.116-0.883-4.649-0.85-0.5 0-1.2-0.017-2.101-0.05-1.166-0.033-2.684-0.1-4.55-0.2-2.8-0.167-4.433-0.2-4.9-0.1-0.533 0.133-0.517 0.3 0.05 0.5 0.4 0.133 1.4 0.45 3 0.95 1.433 0.467 3.566 1 6.399 1.6 0.767 0.167 1.584 0.333 2.45 0.5 1.467 0.267 2.517 0.417 3.15 0.45 0.5 0.034 0.983 0.1 1.449 0.2 0.067 0 0.134 0.017 0.2 0.05-0.2 0.033-0.35 0.05-0.45 0.05-0.466 0-1.133-0.083-2-0.25l-1.198-0.25 1.05 0.5c0.899 0.334 1.184 0.7 0.85 1.101-0.566 0.666-1.566 1.2-3 1.6l2.1-0.901h-1.35c-0.6 0-1.684-0.101-3.25-0.301-1.233-0.166-2.75-0.383-4.55-0.649-1.267-0.167-3.6-0.767-7-1.8-2.967-0.9-4.95-1.333-5.95-1.3-1.267 0.033-2.05 0.15-2.35 0.35-0.233 0.133-0.233 0.35 0 0.65 0.333 0.467 2.367 1.6 6.1 3.4 0.133 0.066 0.267 0.134 0.4 0.2l-0.65-0.2 0.8 0.35c0.7 0.267 1.417 0.483 2.15 0.65 0.6 0.167 1.25 0.333 1.95 0.5 0.467 0.134 0.899 0.316 1.3 0.55 0.967 0.566 1.066 1.15 0.3 1.75-0.366 0.601-0.75 1.05-1.149 1.351-0.734 0.5-1.984 0.683-3.75 0.55-0.967-0.066-3.05-0.5-6.25-1.3-3.633-0.9-6.2-1.534-7.7-1.9-0.401-0.135-0.768-0.251-1.101-0.351zm28.65-1.1c-0.333 0.134-0.7 0.3-1.1 0.5-0.034 0-0.067 0.017-0.101 0.05-0.333 0.134-0.649 0.25-0.95 0.351 0.167-0.101 0.483-0.25 0.95-0.45l1.201-0.451zm-12.95-0.5c0.167 0.033 0.367 0.066 0.6 0.101 0.667 0.1 1.633 0.216 2.9 0.35 1.2 0.1 3.351 0.467 6.45 1.1-0.533 0.034-1.566-0.116-3.1-0.449-1.767-0.334-3.017-0.534-3.75-0.601-0.9-0.068-1.933-0.235-3.1-0.501zm20.95-7.85c-1.1 0-1.483 0.133-1.15 0.4 0.4 0.333 0.934 0.75 1.601 1.25 0.7 0.533 1.083 0.8 1.149 0.8 0.067 0 0.434 0.033 1.101 0.1 0.8 0 1.633-0.183 2.5-0.55 2.267-1 1.6-1.6-2-1.8-1.501-0.1-2.567-0.167-3.201-0.2zm-19.65-1c1.667-0.934 3.133-1.517 4.4-1.75-0.4 0.1-0.9 0.267-1.5 0.5-0.967 0.333-1.733 0.65-2.3 0.95l-0.6 0.3zm-16.9 6.4c2.5 0 4.5 0.217 6 0.65l3.1 0.95c-0.533-0.467-1.216-0.917-2.05-1.351-1.633-0.899-3.15-1.316-4.55-1.25-0.633 0.033-1.317 0.2-2.05 0.5-0.767 0.335-0.917 0.501-0.45 0.501z" clip-rule="evenodd" fill="#E0DBCA" fill-rule="evenodd"/>
<path d="m45.05 11.05c-0.066-0.033-0.133-0.05-0.2-0.05-0.466-0.1-0.949-0.167-1.449-0.2-0.634-0.033-1.684-0.183-3.15-0.45-0.866-0.167-1.684-0.333-2.45-0.5-2.833-0.6-4.967-1.133-6.399-1.6-1.601-0.5-2.601-0.817-3-0.95-0.566-0.2-0.583-0.367-0.05-0.5 0.467-0.1 2.1-0.066 4.9 0.1 1.866 0.1 3.384 0.167 4.55 0.2 0.898 0.033 1.598 0.05 2.098 0.05 1.534-0.033 3.083 0.25 4.65 0.85 0.8 0.333 1.601 0.717 2.4 1.15 0.5 0.167 0.783 0.283 0.85 0.35 0.134 0.133-0.05 0.35-0.55 0.65-0.134 0.067-0.267 0.15-0.4 0.25-0.833 0.3-1.433 0.517-1.8 0.65zm1.95-5.1c0.634 0.033 1.7 0.1 3.2 0.2 3.6 0.2 4.267 0.8 2 1.8-0.867 0.367-1.7 0.55-2.5 0.55-0.667-0.067-1.033-0.1-1.101-0.1-0.066 0-0.449-0.267-1.149-0.8-0.667-0.5-1.2-0.917-1.601-1.25-0.332-0.267 0.051-0.4 1.151-0.4zm-16.2 5.95c1 0.033 2.184 0.149 3.55 0.35 0.767 0.134 1.917 0.333 3.45 0.6h0.101l1.35 0.601c0.3 0.066 0.467 0.149 0.5 0.25-0.366 0.066-1.017 0.233-1.95 0.5h-0.05c-0.833 0.233-1.517 0.366-2.05 0.399-0.467 0.034-0.816-0.017-1.05-0.149-0.067-0.033-0.301-0.233-0.7-0.601-1.034-0.8-2.085-1.45-3.151-1.95zm-20.35-0.55c-0.467 0-0.317-0.166 0.45-0.5 0.733-0.3 1.417-0.467 2.05-0.5 1.4-0.067 2.917 0.35 4.55 1.25 0.833 0.434 1.517 0.884 2.05 1.351l-3.1-0.951c-1.5-0.434-3.5-0.65-6-0.65z" clip-rule="evenodd" fill="#CDC9BA" fill-rule="evenodd"/>
<path d="m26.05 13.8c-0.633-0.1-1.167-0.217-1.6-0.35-0.133-0.066-0.267-0.134-0.4-0.2-3.733-1.8-5.767-2.933-6.1-3.4-0.233-0.3-0.233-0.517 0-0.65 0.3-0.2 1.083-0.317 2.35-0.35 1-0.033 2.983 0.4 5.95 1.3 3.4 1.034 5.733 1.633 7 1.8 1.8 0.267 3.316 0.483 4.55 0.649 1.566 0.2 2.65 0.301 3.25 0.301h1.35l-2.1 0.9h-0.05l-0.1 0.05-0.3 0.1c-0.267 0.066-0.55 0.184-0.85 0.35l-1.2 0.45c-0.467 0.2-0.783 0.35-0.95 0.45-0.3 0.1-0.583 0.149-0.85 0.149-3.1-0.633-5.25-1-6.45-1.1-1.267-0.134-2.233-0.25-2.9-0.35-0.233-0.033-0.433-0.066-0.6-0.099zm4.75-1.9c1.066 0.5 2.117 1.149 3.15 1.949 0.399 0.367 0.633 0.567 0.7 0.601 0.233 0.133 0.583 0.184 1.05 0.149 0.533-0.033 1.217-0.166 2.05-0.399h0.05c0.934-0.267 1.584-0.434 1.95-0.5-0.033-0.101-0.2-0.184-0.5-0.25l-1.35-0.6h-0.101c-1.533-0.267-2.684-0.466-3.45-0.6-1.366-0.2-2.549-0.316-3.549-0.35z" clip-rule="evenodd" fill="#D9D5C5" fill-rule="evenodd"/>
<linearGradient id="a" x2="59.15" y1="13.725" y2="13.725" gradientUnits="userSpaceOnUse">
	<stop stop-opacity=".298" offset="0"/>
	<stop stop-opacity=".298" offset=".8588"/>
	<stop stop-opacity=".298" offset="1"/>
</linearGradient>
<path d="m3.5 13.35l0.55 0.25c1.7 0.7 5.45 1.934 11.25 3.7 4.2 1.3 8.517 2.334 12.95 3.101l4.95-2.801c1.166-0.633 2.633-1.316 4.399-2.05 0.067-0.033 0.134-0.05 0.2-0.05 2.2-0.9 3.584-1.5 4.15-1.8 0.066-0.033 1.767-0.834 5.1-2.4 1.066-0.5 1.983-0.933 2.75-1.3l1.7-0.9c0.033-0.033 0.066-0.05 0.1-0.05 0.035-0.033 0.068-0.05 0.101-0.05l0.649-0.4c0.834-0.5 1.717-1.083 2.65-1.75l0.4-0.3c2.1 0.233 3.35 0.3 3.75 0.2-0.767 0.467-1.467 0.8-2.101 1-0.3 0.1-1.217 0.6-2.75 1.5-1.767 1-3.149 1.733-4.149 2.2-4.767 2.133-8.801 3.816-12.101 5.05-0.1 0.033-0.184 0.066-0.25 0.1-2.434 0.9-4.717 1.884-6.85 2.95l-2.5 1.351c-1.7-0.067-3.883-0.417-6.55-1.051-2.8-0.6-4.967-1.05-6.5-1.35-2.7-0.6-4.917-1.167-6.65-1.7l-8.748-2.7 2.6-0.55c0.067-0.033 0.367-0.1 0.9-0.2z" clip-rule="evenodd" fill="url(#a)" fill-rule="evenodd"/>
</svg>