<?xml version="1.0" encoding="UTF-8"?>
<svg viewBox="0 0 709 727" xmlns="http://www.w3.org/2000/svg">
 <g label="Capa 1">
  <path transform="matrix(1.2645 0 0 1.2645 915.54 -633.88)" d="m-184.86 548.3l-32.325 45.457-53.538 52.528-28.284 35.355-42.426 51.518 5.051 14.142 41.416-36.365 56.569-57.579 40.406-46.467 20.203-39.396-7.071-19.193h-1e-3z" fill="#808080" stroke="#000" stroke-width="1px" label="Capa 1"/>
  <path transform="matrix(1.2645 0 0 1.2645 915.54 -633.88)" d="m-482.99 739.61l-62.169 18.239-30.658 18.221-49.732-19.055-54.699 27.341-31.511 37.312 3.318 52.216 33.16 25.691 47.248-4.986 42.262-23.207-45.58 62.169-13.271 71.269 11.603 31.51 22.391 17.41 26.507 7.45 38.962-14.09 36.46-29.01 45.598-50.562 11.603-46.414-13.271-34.81-37.294-29.009 23.207-14.087 48.898-9.12 2.484-13.253-53.031-15.755-72.105 32.327-2.502-9.119 33.16-23.207 38.962-10.769v-54.702zm-151.68 50.548l28.175 6.636-0.834 14.921-9.935 33.976-25.692 23.207-29.842-3.318-12.437-20.705-1.65-17.405 24.857-24.875 27.359-12.437zm121.84 115.22l16.571 9.935 9.12 29.843-24.041 28.175-36.46 36.479-21.557 17.4-17.405-6.63-15.737-6.64-7.47-14.918 2.484-24.857 13.271-22.373 47.248-43.096 33.976-3.318z" fill="#999" stroke="#000" stroke-width=".58017px" label="Capa 1"/>
  <path d="m143.94 717.85c-7.917-2.896-24.11-14.099-35.983-24.898-28.158-25.618-29.268-93.144-2.399-145.85 10.555-20.703 19.191-37.923 19.191-38.267 0-0.342-17.561 1.051-39.026 3.098-53.322 5.086-85.719-24.438-85.719-78.117 0-32.041 6.5475-44.521 41.918-79.891 46.041-46.041 80.782-53.801 119.49-26.692 19.384 13.577 24.11 13.674 43.611 0.896 12.029-7.881 40.991-19.771 64.359-26.42 34.448-9.802 66.18-35.33 167.72-134.93 128-125.56 189.7-166.77 232.8-155.49 12.293 3.2156 23.815 15.924 27.407 30.231 11.696 46.604-36.718 115.2-183.11 259.43-120.54 118.76-141.94 135.89-176.71 141.46l-39.567 6.327 23.413 18.415c27.788 21.859 38.959 69.731 24.899 106.71-14.281 37.562-95.709 122.28-132.4 137.75-32.442 13.682-46.179 14.908-69.877 6.247h-0.011zm131.94-84.544c43.253-45.942 50.377-58.874 50.377-91.446 0-39.77-25.275-76.318-52.777-76.318-7.917 0-14.394-3.789-14.394-8.42 0-15.442 23.561-27.721 67.171-35.006 38.87-6.494 41.045-8.177 21.787-16.856-51.182-23.07-180.37 53.404-221.84 139.08-33.667 69.546-23.453 137.43 27.337 153.57 30.56 9.711 73.965-13.201 122.34-64.603zm-114.34 30.019c-15.37-7.612-23.359-21.016-25.453-42.68-2.564-26.527 3.755-38.385 39.519-74.148 34.582-34.582 49.048-42.571 77.081-42.571 35.177 0 54.377 18.557 54.377 52.557 0 19.571-81.108 106.96-105.1 113.23-9.916 2.592-28.109-0.278-40.429-6.386zm64.013-34.696c64.841-51.529 79.049-86.288 43.129-105.51-24.606-13.168-44.127-2.817-89.589 47.503-39.535 43.76-41.401 50.434-20.077 71.753 20.383 20.383 24.714 19.485 66.536-13.744zm-50.729-191.43c32.286-31.999 67.321-54.92 85.545-61.184 33.744-11.601 37.1-24.622 37.1-49.11 0-19.1-52.529-7.447-85.313 22.63l-26.085 15.72-25.875-10.738c-36.607-31.699-57.462-29.384-102.59 11.387-42.703 38.579-51.002 79.417-22.531 110.88 31.149 34.419 75.817 23.784 139.75-39.582zm-130.38 17.646c-16.832-24.03-11.876-42.339 21.126-78.063 27.27-29.518 59.804-33.979 82.475-11.309 22.75 22.75 18.184 55.121-11.834 83.88-32.682 31.313-72.03 33.667-91.765 5.492zm74.589-17.141c50.016-52.206 8.985-93.237-43.22-43.22-32.133 30.785-33.214 35.525-12.76 55.98s25.195 19.374 55.98-12.76zm169.04-56.707c-8.633-3.027-67.378 24.264-67.378 31.302 0 2.112 17.073-3.398 37.939-12.242 20.867-8.843 34.115-17.421 29.439-19.062zm148.25-30.319c33.407-34.213 43.433-37.378 33.71-58.72-5.956-13.071-29.39-34.265-43.109-43.254-24.618-16.131-32.773-15.862-70.146 20.631-30.705 29.982-46.25 47.932-46.25 76.935 0 29.464 21.622 40.694 39.407 44.119 44.514 8.575 50.069-2.519 86.386-39.711zm-68.248-24.345c-3.337-8.696 0.234-22.112 7.934-29.813 19.2-19.199 48-6.777 44.305 19.111-3.639 25.507-43.43 33.659-52.239 10.702zm37.339-8.725c1.319-4.838-3-10.595-9.596-12.794-6.597-2.199-11.994 3.198-11.994 11.995 0 16.249 17.203 16.886 21.59 0.799zm235.41-168.28c11.011-15.833 46.28-66.39 41.229-61.112-5.053 5.2779-79.066 82.98-120.92 127.84l-70.863 82.611 64.221-57.132c35.897-34.304 75.325-76.375 86.338-92.207zm5.248-44.936c32.139-49.178 43.053-86.449 18.592-86.449-27.799 0-119.84 64.119-185.78 131.57l-75.842 74.103 49.017 19.382 38.538 36.151 57.87-70.154c33.558-35.126 82.274-81.145 97.607-104.61z" label="Capa 1"/>
  <path transform="matrix(1.2645 0 0 1.2645 915.54 -633.88)" d="m-603.71 1050.4c-32.782-11.1-43.449-56.499-24.668-104.99 22.138-57.154 99.406-118.84 155.14-123.86 14.494-1.305 34.292 2.93 30.663 6.559-0.857 0.857-11 3.463-22.539 5.791-38.194 7.706-55.583 17.033-53.352 28.617 0.643 3.338 5.7 6.455 14.512 8.944 21.656 6.116 36.047 29.65 36.305 59.369 0.196 22.514-10.599 40.651-44.04 73.99-40.558 40.44-67.613 53.84-92.021 45.58zm45.66-21.6c17.556-9.3 70.512-65.91 76.575-81.858 3.325-8.746-1.739-28.427-9.459-36.763-3.166-3.418-11.786-7.661-19.156-9.43-27.067-6.493-52.432 5.463-83.416 39.316-25.351 27.699-30.382 48.358-17.776 72.985 7.524 14.69 38.131 23.75 53.232 15.75z" fill="none" label="Capa 1"/>
  <path transform="matrix(1.2645 0 0 1.2645 915.54 -633.88)" d="m-603.71 1050.4c-32.782-11.1-43.449-56.499-24.668-104.99 22.138-57.154 99.406-118.84 155.14-123.86 14.494-1.305 34.292 2.93 30.663 6.559-0.857 0.857-11 3.463-22.539 5.791-38.194 7.706-55.583 17.033-53.352 28.617 0.643 3.338 5.7 6.455 14.512 8.944 21.656 6.116 36.047 29.65 36.305 59.369 0.196 22.514-10.599 40.651-44.04 73.99-40.558 40.44-67.613 53.84-92.021 45.58zm45.66-21.6c17.556-9.3 70.512-65.91 76.575-81.858 3.325-8.746-1.739-28.427-9.459-36.763-3.166-3.418-11.786-7.661-19.156-9.43-27.067-6.493-52.432 5.463-83.416 39.316-25.351 27.699-30.382 48.358-17.776 72.985 7.524 14.69 38.131 23.75 53.232 15.75z" fill="#00bf00" label="Capa 1"/>
  <path transform="matrix(1.2645 0 0 1.2645 915.54 -633.88)" d="m-683.56 886.88c-22.349-14.055-29.806-40.981-17.934-64.753 7.58-15.177 34.56-41.531 51.219-50.03 15.293-7.802 25.065-7.103 40.874 2.922 7.442 4.719 17.977 10.439 23.413 12.71 9.741 4.07 10.16 3.941 29.172-8.934 26.003-17.609 39.821-23.647 54.29-23.722 11.542-0.06 12.143 0.352 12.143 8.323 0 16.819-4.521 22.377-27.755 34.12-26.036 13.16-42.002 24.731-77.684 56.302-39.983 35.376-67.544 45.762-87.736 33.063l-2e-3 -1e-3zm40.847-12.03c42.172-15.818 61.723-64.215 35.018-86.686-23.741-19.977-55.008-8.079-80.982 30.816-21.394 32.037 9.474 69.557 45.964 55.87z" fill="#00bf00" fill-rule="evenodd" label="Capa 1"/>
  <path transform="matrix(5.6934 0 0 5.6934 1756.4 -2796.1)" d="m-246.11 559.76c-2.812-0.511-4.144-1.113-5.654-2.553-1.604-1.53-2.296-3.762-1.996-6.439 0.389-3.479 1.619-5.622 5.647-9.834 4.295-4.493 7.444-7.11 9.197-7.648 1.577-0.483 3.408 0.171 6.132 2.191 4.459 3.306 7.338 6.882 7.326 9.099-8e-3 1.513-0.412 2.026-6.145 7.796-5.43 5.465-6.751 6.601-8.425 7.251-1.29 0.5-3.778 0.556-6.082 0.137zm8.389-9.373c2.049-0.906 3.129-2.486 3.125-4.573-4e-3 -2.603-1.671-4.282-4.243-4.272-2.788 0.011-5.212 2.53-5.238 5.445-0.018 1.901 0.833 3.097 2.621 3.685 0.932 0.307 2.703 0.172 3.735-0.285z" fill="#fff" fill-rule="evenodd" label="Capa 1"/>
  <path transform="matrix(5.6934 0 0 5.6934 1756.4 -2796.1)" d="m-225.77 536.81l-3.354-3.138-4.044-1.569c-2.224-0.863-4.102-1.621-4.174-1.686-0.163-0.146 16.393-16.322 19.754-19.3 4.776-4.232 9.426-7.851 14.053-10.938 9.663-6.447 13.962-7.443 13.965-3.234 2e-3 2.957-3.394 9.887-7.125 14.542-0.818 1.021-4.49 4.919-8.159 8.662-5.943 6.062-7.251 7.506-11.963 13.207-2.91 3.521-5.36 6.444-5.445 6.497s-1.662-1.317-3.507-3.043h-1e-3z" fill="#fff" fill-rule="evenodd" label="Capa 1"/>
 </g>
</svg>
